<mxfile host="app.diagrams.net" modified="2024-03-18T14:34:38.209Z" agent="Mozilla/5.0 (Macintosh; Intel Mac OS X 10_15_7) AppleWebKit/537.36 (KHTML, like Gecko) Chrome/116.0.0.0 Safari/537.36" etag="p-jLdS2NoNRKAdyAqoYA" version="24.0.7" type="device">
  <diagram name="第 1 页" id="n9D54emt0kach4g6EPNV">
    <mxGraphModel dx="954" dy="515" grid="1" gridSize="10" guides="1" tooltips="1" connect="1" arrows="1" fold="1" page="1" pageScale="1" pageWidth="3300" pageHeight="4681" math="0" shadow="0">
      <root>
        <mxCell id="0" />
        <mxCell id="1" parent="0" />
        <mxCell id="hhLY8btTUJmFLX4phZId-14" value="" style="rounded=0;whiteSpace=wrap;html=1;" vertex="1" parent="1">
          <mxGeometry x="430" y="290" width="40" height="40" as="geometry" />
        </mxCell>
        <mxCell id="hhLY8btTUJmFLX4phZId-3" value="" style="rounded=0;whiteSpace=wrap;html=1;" vertex="1" parent="1">
          <mxGeometry x="270" y="290" width="40" height="40" as="geometry" />
        </mxCell>
        <mxCell id="ZMjJjni6RbTrYaw7RHLS-4" value="" style="rounded=0;whiteSpace=wrap;html=1;" parent="1" vertex="1">
          <mxGeometry x="250" y="120" width="80" height="40" as="geometry" />
        </mxCell>
        <mxCell id="ZMjJjni6RbTrYaw7RHLS-5" value="4" style="rounded=0;whiteSpace=wrap;html=1;fillColor=#eeeeee;strokeColor=#36393d;" parent="1" vertex="1">
          <mxGeometry x="330" y="120" width="80" height="40" as="geometry" />
        </mxCell>
        <mxCell id="ZMjJjni6RbTrYaw7RHLS-6" value="2" style="rounded=0;whiteSpace=wrap;html=1;fillColor=#eeeeee;strokeColor=#36393d;" parent="1" vertex="1">
          <mxGeometry x="410" y="120" width="80" height="40" as="geometry" />
        </mxCell>
        <mxCell id="ZMjJjni6RbTrYaw7RHLS-12" value="&lt;b&gt;&lt;font style=&quot;font-size: 15px;&quot;&gt;栈桢&lt;/font&gt;&lt;/b&gt;" style="text;html=1;strokeColor=none;fillColor=none;align=center;verticalAlign=middle;whiteSpace=wrap;rounded=0;" parent="1" vertex="1">
          <mxGeometry x="180" y="125" width="60" height="30" as="geometry" />
        </mxCell>
        <mxCell id="ZMjJjni6RbTrYaw7RHLS-13" value="" style="rounded=0;whiteSpace=wrap;html=1;shape=waypoint;sketch=0;fillStyle=solid;size=6;pointerEvents=1;points=[];fillColor=#eeeeee;resizable=0;rotatable=0;perimeter=centerPerimeter;snapToPoint=1;strokeColor=#36393d;" parent="1" vertex="1">
          <mxGeometry x="270" y="290" width="40" height="40" as="geometry" />
        </mxCell>
        <mxCell id="ZMjJjni6RbTrYaw7RHLS-14" value="" style="endArrow=classic;html=1;rounded=0;" parent="1" source="ZMjJjni6RbTrYaw7RHLS-36" edge="1">
          <mxGeometry width="50" height="50" relative="1" as="geometry">
            <mxPoint x="440" y="240" as="sourcePoint" />
            <mxPoint x="290" y="290" as="targetPoint" />
          </mxGeometry>
        </mxCell>
        <mxCell id="ZMjJjni6RbTrYaw7RHLS-15" value="拥有" style="text;html=1;align=center;verticalAlign=middle;resizable=0;points=[];autosize=1;strokeColor=none;fillColor=none;" parent="1" vertex="1">
          <mxGeometry x="280" y="185" width="50" height="30" as="geometry" />
        </mxCell>
        <mxCell id="ZMjJjni6RbTrYaw7RHLS-16" value="&lt;b&gt;&lt;font style=&quot;font-size: 15px;&quot;&gt;堆&lt;/font&gt;&lt;/b&gt;" style="text;html=1;strokeColor=none;fillColor=none;align=center;verticalAlign=middle;whiteSpace=wrap;rounded=0;" parent="1" vertex="1">
          <mxGeometry x="180" y="295" width="60" height="30" as="geometry" />
        </mxCell>
        <mxCell id="ZMjJjni6RbTrYaw7RHLS-17" value="" style="shape=curlyBracket;whiteSpace=wrap;html=1;rounded=1;labelPosition=left;verticalLabelPosition=middle;align=right;verticalAlign=middle;direction=south;" parent="1" vertex="1">
          <mxGeometry x="290" y="70" width="145" height="50" as="geometry" />
        </mxCell>
        <mxCell id="ZMjJjni6RbTrYaw7RHLS-21" value="8" style="rounded=0;whiteSpace=wrap;html=1;fillColor=#eeeeee;strokeColor=#36393d;" parent="1" vertex="1">
          <mxGeometry x="310" y="290" width="40" height="40" as="geometry" />
        </mxCell>
        <mxCell id="ZMjJjni6RbTrYaw7RHLS-22" value="8" style="rounded=0;whiteSpace=wrap;html=1;fillColor=#eeeeee;strokeColor=#36393d;" parent="1" vertex="1">
          <mxGeometry x="350" y="290" width="40" height="40" as="geometry" />
        </mxCell>
        <mxCell id="ZMjJjni6RbTrYaw7RHLS-23" value="1990" style="rounded=0;whiteSpace=wrap;html=1;fillColor=#eeeeee;strokeColor=#36393d;" parent="1" vertex="1">
          <mxGeometry x="390" y="290" width="40" height="40" as="geometry" />
        </mxCell>
        <mxCell id="ZMjJjni6RbTrYaw7RHLS-24" value="" style="rounded=0;whiteSpace=wrap;html=1;shape=waypoint;sketch=0;fillStyle=solid;size=6;pointerEvents=1;points=[];fillColor=none;resizable=0;rotatable=0;perimeter=centerPerimeter;snapToPoint=1;" parent="1" vertex="1">
          <mxGeometry x="430" y="290" width="40" height="40" as="geometry" />
        </mxCell>
        <mxCell id="ZMjJjni6RbTrYaw7RHLS-25" value="4" style="rounded=0;whiteSpace=wrap;html=1;" parent="1" vertex="1">
          <mxGeometry x="470" y="290" width="40" height="40" as="geometry" />
        </mxCell>
        <mxCell id="ZMjJjni6RbTrYaw7RHLS-26" value="4" style="rounded=0;whiteSpace=wrap;html=1;" parent="1" vertex="1">
          <mxGeometry x="510" y="290" width="40" height="40" as="geometry" />
        </mxCell>
        <mxCell id="ZMjJjni6RbTrYaw7RHLS-27" value="1995" style="rounded=0;whiteSpace=wrap;html=1;" parent="1" vertex="1">
          <mxGeometry x="550" y="290" width="40" height="40" as="geometry" />
        </mxCell>
        <mxCell id="ZMjJjni6RbTrYaw7RHLS-29" value="容量" style="text;html=1;strokeColor=none;fillColor=none;align=center;verticalAlign=middle;whiteSpace=wrap;rounded=0;" parent="1" vertex="1">
          <mxGeometry x="340" y="155" width="60" height="30" as="geometry" />
        </mxCell>
        <mxCell id="ZMjJjni6RbTrYaw7RHLS-30" value="长度" style="text;html=1;strokeColor=none;fillColor=none;align=center;verticalAlign=middle;whiteSpace=wrap;rounded=0;" parent="1" vertex="1">
          <mxGeometry x="420" y="155" width="60" height="30" as="geometry" />
        </mxCell>
        <mxCell id="ZMjJjni6RbTrYaw7RHLS-33" value="&lt;b&gt;list&lt;/b&gt;" style="text;html=1;strokeColor=none;fillColor=none;align=center;verticalAlign=middle;whiteSpace=wrap;rounded=0;" parent="1" vertex="1">
          <mxGeometry x="319" y="45" width="87" height="30" as="geometry" />
        </mxCell>
        <mxCell id="ZMjJjni6RbTrYaw7RHLS-36" value="" style="shape=waypoint;sketch=0;fillStyle=solid;size=6;pointerEvents=1;points=[];fillColor=#eeeeee;resizable=0;rotatable=0;perimeter=centerPerimeter;snapToPoint=1;rounded=0;strokeColor=#36393d;" parent="1" vertex="1">
          <mxGeometry x="250" y="120" width="80" height="40" as="geometry" />
        </mxCell>
        <mxCell id="hhLY8btTUJmFLX4phZId-1" value="zhangsan" style="rounded=0;whiteSpace=wrap;html=1;" vertex="1" parent="1">
          <mxGeometry x="240" y="405" width="100" height="35" as="geometry" />
        </mxCell>
        <mxCell id="hhLY8btTUJmFLX4phZId-5" value="容量" style="text;html=1;align=center;verticalAlign=middle;whiteSpace=wrap;rounded=0;" vertex="1" parent="1">
          <mxGeometry x="311" y="340" width="41" height="20" as="geometry" />
        </mxCell>
        <mxCell id="hhLY8btTUJmFLX4phZId-6" value="长度" style="text;html=1;align=center;verticalAlign=middle;whiteSpace=wrap;rounded=0;" vertex="1" parent="1">
          <mxGeometry x="352" y="340" width="41" height="20" as="geometry" />
        </mxCell>
        <mxCell id="hhLY8btTUJmFLX4phZId-9" value="" style="endArrow=classic;html=1;rounded=0;entryX=0.5;entryY=0;entryDx=0;entryDy=0;" edge="1" parent="1" source="ZMjJjni6RbTrYaw7RHLS-13" target="hhLY8btTUJmFLX4phZId-1">
          <mxGeometry width="50" height="50" relative="1" as="geometry">
            <mxPoint x="290" y="310" as="sourcePoint" />
            <mxPoint x="290" y="400" as="targetPoint" />
          </mxGeometry>
        </mxCell>
        <mxCell id="hhLY8btTUJmFLX4phZId-10" value="缓冲区" style="text;html=1;align=center;verticalAlign=middle;whiteSpace=wrap;rounded=0;" vertex="1" parent="1">
          <mxGeometry x="230" y="330" width="60" height="30" as="geometry" />
        </mxCell>
        <mxCell id="hhLY8btTUJmFLX4phZId-11" value="name" style="text;html=1;align=center;verticalAlign=middle;whiteSpace=wrap;rounded=0;" vertex="1" parent="1">
          <mxGeometry x="301.5" y="260" width="60" height="30" as="geometry" />
        </mxCell>
        <mxCell id="hhLY8btTUJmFLX4phZId-12" value="birth" style="text;html=1;align=center;verticalAlign=middle;whiteSpace=wrap;rounded=0;" vertex="1" parent="1">
          <mxGeometry x="380" y="260" width="60" height="30" as="geometry" />
        </mxCell>
        <mxCell id="hhLY8btTUJmFLX4phZId-13" value="lisi" style="rounded=0;whiteSpace=wrap;html=1;" vertex="1" parent="1">
          <mxGeometry x="400" y="405" width="100" height="35" as="geometry" />
        </mxCell>
        <mxCell id="hhLY8btTUJmFLX4phZId-15" value="" style="endArrow=classic;html=1;rounded=0;entryX=0.5;entryY=0;entryDx=0;entryDy=0;" edge="1" parent="1" source="ZMjJjni6RbTrYaw7RHLS-24" target="hhLY8btTUJmFLX4phZId-13">
          <mxGeometry width="50" height="50" relative="1" as="geometry">
            <mxPoint x="460" y="390" as="sourcePoint" />
            <mxPoint x="510" y="340" as="targetPoint" />
          </mxGeometry>
        </mxCell>
        <mxCell id="hhLY8btTUJmFLX4phZId-16" value="" style="shape=curlyBracket;whiteSpace=wrap;html=1;rounded=1;flipH=1;labelPosition=right;verticalLabelPosition=middle;align=left;verticalAlign=middle;direction=south;" vertex="1" parent="1">
          <mxGeometry x="300" y="240" width="110" height="20" as="geometry" />
        </mxCell>
        <mxCell id="hhLY8btTUJmFLX4phZId-17" value="[0]" style="text;html=1;align=center;verticalAlign=middle;whiteSpace=wrap;rounded=0;" vertex="1" parent="1">
          <mxGeometry x="325" y="215" width="60" height="30" as="geometry" />
        </mxCell>
        <mxCell id="hhLY8btTUJmFLX4phZId-18" value="" style="shape=curlyBracket;whiteSpace=wrap;html=1;rounded=1;flipH=1;labelPosition=right;verticalLabelPosition=middle;align=left;verticalAlign=middle;direction=south;" vertex="1" parent="1">
          <mxGeometry x="450" y="240" width="110" height="20" as="geometry" />
        </mxCell>
        <mxCell id="hhLY8btTUJmFLX4phZId-19" value="[1]" style="text;html=1;align=center;verticalAlign=middle;whiteSpace=wrap;rounded=0;" vertex="1" parent="1">
          <mxGeometry x="475" y="215" width="60" height="30" as="geometry" />
        </mxCell>
      </root>
    </mxGraphModel>
  </diagram>
</mxfile>
